<svg width="2269" height="386" viewBox="0 0 2269 386" fill="none" xmlns="http://www.w3.org/2000/svg">
<path d="M702.59 0H847.426L922.593 216.77L997.76 0H1140.4L984.466 386H858.422L702.59 0Z" fill="white"/>
<path d="M1101.81 0H1431.67V105.943H1229.46V145.111H1418.57V238.197H1229.46V280.156H1435.07V386H1101.81V0Z" fill="white"/>
<path d="M1415.38 0H1604.39C1672.96 0 1716.64 17.0426 1743.73 44.0516C1755.72 56.0125 1765.06 70.3381 1771.18 86.1105C1777.29 101.883 1780.03 118.754 1779.22 135.643V136.839C1779.22 193.05 1749.93 232.118 1702.95 254.742L1792.91 386H1645.37L1572.41 275.671H1544.72V386H1415.38V0ZM1600.59 183.582C1631.48 183.582 1650.57 169.728 1650.57 146.108V145.011C1650.57 120.195 1631.28 108.036 1601.39 108.036H1545.02V183.582H1600.59Z" fill="white"/>
<path d="M1763.12 0H1892.47V386H1763.12V0Z" fill="white"/>
<path d="M1985.03 189.362L1859.18 0H2006.22L2062.09 92.0897L2119.07 0H2263.3L2137.66 188.565L2269 386H2121.56L2060.19 285.638L1998.32 386H1853.98L1985.03 189.362Z" fill="white"/>
<path d="M230.598 381.116C234.672 384.31 239.71 386.031 244.892 386C250.795 385.869 256.408 383.418 260.508 379.181C264.608 374.944 266.863 369.263 266.782 363.376L230.598 381.116Z" fill="white"/>
<path d="M196.413 381.116C192.34 384.31 187.301 386.031 182.12 386C179.171 385.974 176.256 385.367 173.543 384.215C170.83 383.062 168.372 381.387 166.31 379.285C164.248 377.182 162.623 374.695 161.528 371.965C160.433 369.235 159.89 366.316 159.93 363.376L196.413 381.116Z" fill="white"/>
<path fill-rule="evenodd" clip-rule="evenodd" d="M0 386V0H132.442L213.506 143.417L294.57 0H427.012V279.486L544.36 0H674.803L836.731 385.9H696.793L676.802 334.074H540.462L520.471 385.9H427.012V386H305.066V197.634L243.493 309.756H183.619L122.046 197.634V386H0ZM608.432 148.898L643.816 242.682H573.047L608.432 148.898Z" fill="white"/>
</svg>
